<svg xmlns="http://www.w3.org/2000/svg" width="14" height="14" viewBox="0 0 14 14">
  <g id="Iconly_Bold_Work" data-name="Iconly/Bold/Work" opacity="0.45">
    <g id="Work" transform="translate(0)">
      <path id="Work-2" data-name="Work" d="M2.78,14A2.681,2.681,0,0,1,.119,11.307L.07,7.691a.148.148,0,0,1,.063-.12.09.09,0,0,1,.05-.014.145.145,0,0,1,.083.028,11.951,11.951,0,0,0,4.9,1.843.505.505,0,0,0,.069,0,.527.527,0,0,0,.505-.387,1.277,1.277,0,0,1,1.246-.964h.021a1.277,1.277,0,0,1,1.246.964.527.527,0,0,0,.506.387.5.5,0,0,0,.069,0,11.951,11.951,0,0,0,4.9-1.843l.028-.014a.128.128,0,0,1,.056-.013.093.093,0,0,1,.049.013.148.148,0,0,1,.063.12l-.056,3.616A2.681,2.681,0,0,1,11.213,14ZM6.471,9.626v.915A.529.529,0,0,0,7,11.072a.522.522,0,0,0,.525-.531V9.626A.529.529,0,0,0,7,9.095.535.535,0,0,0,6.471,9.626ZM8.994,8.172A2.313,2.313,0,0,0,7,7.018a2.351,2.351,0,0,0-2.011,1.15.229.229,0,0,1-.193.116.2.2,0,0,1-.039,0A10.867,10.867,0,0,1,.82,6.692L.147,6.224a.2.2,0,0,1-.091-.17C.036,5.7,0,4.541,0,4.53a2.688,2.688,0,0,1,2.668-2.7h1.38A2.084,2.084,0,0,1,6.093,0H7.9A2.084,2.084,0,0,1,9.945,1.829h1.387A2.688,2.688,0,0,1,14,4.53c0,.006-.042.639-.056,1.508a.231.231,0,0,1-.09.179c-.329.243-.643.453-.673.468a10.73,10.73,0,0,1-3.953,1.6.212.212,0,0,1-.04,0A.227.227,0,0,1,8.994,8.172ZM5.113,1.829H8.881a1.013,1.013,0,0,0-.98-.765H6.093A1.014,1.014,0,0,0,5.113,1.829Z" transform="translate(0)" fill="#fff"/>
    </g>
  </g>
</svg>
