<svg xmlns="http://www.w3.org/2000/svg" width="14" height="14" viewBox="0 0 14 14">
  <g id="Iconly_Bold_Info_Circle" data-name="Iconly/Bold/Info Circle" opacity="0.6">
    <g id="Info_Circle" data-name="Info Circle" transform="translate(0)">
      <path id="Info_Circle-2" data-name="Info Circle" d="M7,14a7,7,0,1,1,4.952-2.051A7.008,7.008,0,0,1,7,14ZM7,9.052a.61.61,0,0,0-.609.609A.613.613,0,1,0,7,9.052ZM7,3.731a.624.624,0,0,0-.616.616V7.441a.613.613,0,0,0,1.225,0V4.347A.613.613,0,0,0,7,3.731Z" transform="translate(0)" fill="#fff"/>
    </g>
  </g>
</svg>
