<svg xmlns="http://www.w3.org/2000/svg" width="14" height="14" viewBox="0 0 14 14">
  <g id="Iconly_Bold_Calling" data-name="Iconly/Bold/Calling" opacity="0.45">
    <g id="Group" transform="translate(7.979)">
      <g id="Calling" transform="translate(0)">
        <path id="Fill_1" data-name="Fill 1" d="M.714.011A.6.6,0,0,0,.485,1.193,2.423,2.423,0,0,1,2.406,3.119h0a.6.6,0,0,0,.588.487A.653.653,0,0,0,3.11,3.6a.605.605,0,0,0,.474-.708A3.622,3.622,0,0,0,.714.011" transform="translate(0 2.432)" fill="#fff"/>
        <path id="Fill_3" data-name="Fill 3" d="M.667.006A.572.572,0,0,0,.23.129.6.6,0,0,0,.534,1.2,4.839,4.839,0,0,1,4.822,5.5a.6.6,0,0,0,.6.535.56.56,0,0,0,.068,0,.593.593,0,0,0,.4-.222.6.6,0,0,0,.127-.443A6.031,6.031,0,0,0,.667.006" transform="translate(0.003 0)" fill="#fff"/>
      </g>
    </g>
    <g id="Call" transform="translate(0 0.7)">
      <path id="Stroke_1" data-name="Stroke 1" d="M6.322,6.981c2.792,2.792,3.426-.438,5.2,1.339,1.714,1.714,2.7,2.057.528,4.228-.272.219-2,2.849-8.074-3.224S.533,1.521.752,1.249C2.929-.928,3.266.063,4.98,1.776,6.758,3.554,3.53,4.189,6.322,6.981Z" transform="translate(0 0)" fill="#fff"/>
    </g>
  </g>
</svg>
