<svg xmlns="http://www.w3.org/2000/svg" width="12" height="16" viewBox="0 0 12 16">
  <g id="Iconly_Bold_Profile" data-name="Iconly/Bold/Profile" opacity="0.45">
    <g id="Profile" transform="translate(0 0)">
      <path id="Profile-2" data-name="Profile" d="M0,13.26c0-2.177,2.764-2.721,6-2.721,3.254,0,6,.564,6,2.74S9.236,16,6,16C2.747,16,0,15.436,0,13.26ZM2.03,4.233A4.093,4.093,0,0,1,6,0,4.093,4.093,0,0,1,9.97,4.233,4.094,4.094,0,0,1,6,8.466,4.094,4.094,0,0,1,2.03,4.233Z" transform="translate(0 0)" fill="#fff"/>
    </g>
  </g>
</svg>
