<svg xmlns="http://www.w3.org/2000/svg" width="58" height="58" viewBox="0 0 58 58">
  <g id="Grupo_12" data-name="Grupo 12" transform="translate(-611 -1929)">
    <g id="Iconly_Bold_Play" data-name="Iconly/Bold/Play" transform="translate(611 1929)">
      <g id="Play" transform="translate(0 0)">
        <path id="Play-2" data-name="Play" d="M29,58A29,29,0,1,1,58,29.018,29.024,29.024,0,0,1,29,58ZM25.7,17.487a3.881,3.881,0,0,0-1.764.42,3.63,3.63,0,0,0-1.569,1.733,18.311,18.311,0,0,0-.5,2.044,44.633,44.633,0,0,0-.475,7.3,51.381,51.381,0,0,0,.42,7.078,3.182,3.182,0,0,1,.069.318,11.341,11.341,0,0,0,.6,2.227,3.509,3.509,0,0,0,3.109,1.9H25.7a9.246,9.246,0,0,0,2.6-.783,42.708,42.708,0,0,0,11.168-7.611l.17-.167a11.426,11.426,0,0,0,.783-.9,3.367,3.367,0,0,0,.671-2.038,3.53,3.53,0,0,0-.728-2.187c-.034-.035-.1-.106-.184-.2-.187-.2-.469-.512-.738-.781a42.854,42.854,0,0,0-11.421-7.723A9.732,9.732,0,0,0,25.7,17.487Z" transform="translate(0 0)" fill="#fff"/>
      </g>
    </g>
    <g id="Iconly_Bold_Play-2" data-name="Iconly/Bold/Play" transform="translate(618 1936)">
      <g id="Play-3" data-name="Play">
        <path id="Play-4" data-name="Play" d="M22,44A22,22,0,1,1,44,22.014,22.018,22.018,0,0,1,22,44ZM19.5,13.266a2.944,2.944,0,0,0-1.338.319,2.754,2.754,0,0,0-1.19,1.315,13.891,13.891,0,0,0-.382,1.55,33.86,33.86,0,0,0-.36,5.54,38.978,38.978,0,0,0,.319,5.37,2.413,2.413,0,0,1,.053.241,8.6,8.6,0,0,0,.456,1.689,2.662,2.662,0,0,0,2.358,1.443H19.5a7.014,7.014,0,0,0,1.974-.594,32.4,32.4,0,0,0,8.473-5.774l.129-.127a8.669,8.669,0,0,0,.594-.679,2.554,2.554,0,0,0,.509-1.546,2.678,2.678,0,0,0-.552-1.659c-.026-.027-.075-.08-.139-.15-.142-.155-.356-.388-.56-.592a32.51,32.51,0,0,0-8.665-5.859A7.383,7.383,0,0,0,19.5,13.266Z" fill="#fff"/>
      </g>
    </g>
  </g>
</svg>
